<svg width="272" height="130" viewBox="0 0 272 130" fill="none" xmlns="http://www.w3.org/2000/svg">
<g filter="url(#filter0_d_71080_391)">
<path d="M40 25H222C227.523 25 232 29.4772 232 35V65C232 70.5228 227.523 75 222 75H50C44.4771 75 40 70.5228 40 65V25Z" fill="url(#paint0_linear_71080_391)"/>
</g>
<path d="M71.1875 50.3828H72.6875C72.6094 51.1016 72.4036 51.7448 72.0703 52.3125C71.737 52.8802 71.2656 53.3307 70.6562 53.6641C70.0469 53.9922 69.2865 54.1562 68.375 54.1562C67.7083 54.1562 67.1016 54.0312 66.5547 53.7812C66.013 53.5312 65.5469 53.1771 65.1562 52.7188C64.7656 52.2552 64.4635 51.7005 64.25 51.0547C64.0417 50.4036 63.9375 49.6797 63.9375 48.8828V47.75C63.9375 46.9531 64.0417 46.2318 64.25 45.5859C64.4635 44.9349 64.7682 44.3776 65.1641 43.9141C65.5651 43.4505 66.0469 43.0938 66.6094 42.8438C67.1719 42.5938 67.8047 42.4688 68.5078 42.4688C69.3672 42.4688 70.0938 42.6302 70.6875 42.9531C71.2812 43.276 71.7422 43.724 72.0703 44.2969C72.4036 44.8646 72.6094 45.5234 72.6875 46.2734H71.1875C71.1146 45.7422 70.9792 45.2865 70.7812 44.9062C70.5833 44.5208 70.3021 44.224 69.9375 44.0156C69.5729 43.8073 69.0964 43.7031 68.5078 43.7031C68.0026 43.7031 67.5573 43.7995 67.1719 43.9922C66.7917 44.1849 66.4714 44.4583 66.2109 44.8125C65.9557 45.1667 65.763 45.5911 65.6328 46.0859C65.5026 46.5807 65.4375 47.1302 65.4375 47.7344V48.8828C65.4375 49.4401 65.4948 49.9635 65.6094 50.4531C65.7292 50.9427 65.9089 51.3724 66.1484 51.7422C66.388 52.112 66.6927 52.4036 67.0625 52.6172C67.4323 52.8255 67.8698 52.9297 68.375 52.9297C69.0156 52.9297 69.526 52.8281 69.9062 52.625C70.2865 52.4219 70.5729 52.1302 70.7656 51.75C70.9635 51.3698 71.1042 50.9141 71.1875 50.3828ZM79.5078 52.5547V48.2031C79.5078 47.8698 79.4401 47.5807 79.3047 47.3359C79.1745 47.0859 78.9766 46.8932 78.7109 46.7578C78.4453 46.6224 78.1172 46.5547 77.7266 46.5547C77.362 46.5547 77.0417 46.6172 76.7656 46.7422C76.4948 46.8672 76.2812 47.0312 76.125 47.2344C75.974 47.4375 75.8984 47.6562 75.8984 47.8906H74.4531C74.4531 47.5885 74.5312 47.2891 74.6875 46.9922C74.8438 46.6953 75.0677 46.4271 75.3594 46.1875C75.6562 45.9427 76.0104 45.75 76.4219 45.6094C76.8385 45.4635 77.3021 45.3906 77.8125 45.3906C78.4271 45.3906 78.9688 45.4948 79.4375 45.7031C79.9115 45.9115 80.2812 46.2266 80.5469 46.6484C80.8177 47.0651 80.9531 47.5885 80.9531 48.2188V52.1562C80.9531 52.4375 80.9766 52.737 81.0234 53.0547C81.0755 53.3724 81.151 53.6458 81.25 53.875V54H79.7422C79.6693 53.8333 79.612 53.612 79.5703 53.3359C79.5286 53.0547 79.5078 52.7943 79.5078 52.5547ZM79.7578 48.875L79.7734 49.8906H78.3125C77.901 49.8906 77.5339 49.9245 77.2109 49.9922C76.888 50.0547 76.6172 50.151 76.3984 50.2812C76.1797 50.4115 76.013 50.5755 75.8984 50.7734C75.7839 50.9661 75.7266 51.1927 75.7266 51.4531C75.7266 51.7188 75.7865 51.9609 75.9062 52.1797C76.026 52.3984 76.2057 52.5729 76.4453 52.7031C76.6901 52.8281 76.9896 52.8906 77.3438 52.8906C77.7865 52.8906 78.1771 52.7969 78.5156 52.6094C78.8542 52.4219 79.1224 52.1927 79.3203 51.9219C79.5234 51.651 79.6328 51.388 79.6484 51.1328L80.2656 51.8281C80.2292 52.0469 80.1302 52.2891 79.9688 52.5547C79.8073 52.8203 79.5911 53.0755 79.3203 53.3203C79.0547 53.5599 78.737 53.7604 78.3672 53.9219C78.0026 54.0781 77.5911 54.1562 77.1328 54.1562C76.5599 54.1562 76.0573 54.0443 75.625 53.8203C75.1979 53.5964 74.8646 53.2969 74.625 52.9219C74.3906 52.5417 74.2734 52.1172 74.2734 51.6484C74.2734 51.1953 74.362 50.7969 74.5391 50.4531C74.7161 50.1042 74.9714 49.8151 75.3047 49.5859C75.638 49.3516 76.0391 49.1745 76.5078 49.0547C76.9766 48.9349 77.5 48.875 78.0781 48.875H79.7578ZM84.6719 47.3516V54H83.2266V45.5469H84.5938L84.6719 47.3516ZM84.3281 49.4531L83.7266 49.4297C83.7318 48.8516 83.8177 48.3177 83.9844 47.8281C84.151 47.3333 84.3854 46.9036 84.6875 46.5391C84.9896 46.1745 85.349 45.8932 85.7656 45.6953C86.1875 45.4922 86.6536 45.3906 87.1641 45.3906C87.5807 45.3906 87.9557 45.4479 88.2891 45.5625C88.6224 45.6719 88.9062 45.849 89.1406 46.0938C89.3802 46.3385 89.5625 46.6562 89.6875 47.0469C89.8125 47.4323 89.875 47.9036 89.875 48.4609V54H88.4219V48.4453C88.4219 48.0026 88.3568 47.6484 88.2266 47.3828C88.0964 47.112 87.9062 46.9167 87.6562 46.7969C87.4062 46.6719 87.099 46.6094 86.7344 46.6094C86.375 46.6094 86.0469 46.6849 85.75 46.8359C85.4583 46.987 85.2057 47.1953 84.9922 47.4609C84.7839 47.7266 84.6198 48.0312 84.5 48.375C84.3854 48.7135 84.3281 49.0729 84.3281 49.4531ZM97.6094 45.5469V54H96.1562V45.5469H97.6094ZM96.0469 43.3047C96.0469 43.0703 96.1172 42.8724 96.2578 42.7109C96.4036 42.5495 96.6172 42.4688 96.8984 42.4688C97.1745 42.4688 97.3854 42.5495 97.5312 42.7109C97.6823 42.8724 97.7578 43.0703 97.7578 43.3047C97.7578 43.5286 97.6823 43.7214 97.5312 43.8828C97.3854 44.0391 97.1745 44.1172 96.8984 44.1172C96.6172 44.1172 96.4036 44.0391 96.2578 43.8828C96.1172 43.7214 96.0469 43.5286 96.0469 43.3047ZM108.82 51.7578C108.82 51.5495 108.773 51.3568 108.68 51.1797C108.591 50.9974 108.406 50.8333 108.125 50.6875C107.849 50.5365 107.432 50.4062 106.875 50.2969C106.406 50.1979 105.982 50.0807 105.602 49.9453C105.227 49.8099 104.906 49.6458 104.641 49.4531C104.38 49.2604 104.18 49.0339 104.039 48.7734C103.898 48.513 103.828 48.2083 103.828 47.8594C103.828 47.526 103.901 47.2109 104.047 46.9141C104.198 46.6172 104.409 46.3542 104.68 46.125C104.956 45.8958 105.286 45.7161 105.672 45.5859C106.057 45.4557 106.487 45.3906 106.961 45.3906C107.638 45.3906 108.216 45.5104 108.695 45.75C109.174 45.9896 109.542 46.3099 109.797 46.7109C110.052 47.1068 110.18 47.5469 110.18 48.0312H108.734C108.734 47.7969 108.664 47.5703 108.523 47.3516C108.388 47.1276 108.188 46.9427 107.922 46.7969C107.661 46.651 107.341 46.5781 106.961 46.5781C106.56 46.5781 106.234 46.6406 105.984 46.7656C105.74 46.8854 105.56 47.0391 105.445 47.2266C105.336 47.4141 105.281 47.612 105.281 47.8203C105.281 47.9766 105.307 48.1172 105.359 48.2422C105.417 48.362 105.516 48.474 105.656 48.5781C105.797 48.6771 105.995 48.7708 106.25 48.8594C106.505 48.9479 106.831 49.0365 107.227 49.125C107.919 49.2812 108.49 49.4688 108.938 49.6875C109.385 49.9062 109.719 50.1745 109.938 50.4922C110.156 50.8099 110.266 51.1953 110.266 51.6484C110.266 52.0182 110.188 52.3568 110.031 52.6641C109.88 52.9714 109.659 53.237 109.367 53.4609C109.081 53.6797 108.737 53.8516 108.336 53.9766C107.94 54.0964 107.495 54.1562 107 54.1562C106.255 54.1562 105.625 54.0234 105.109 53.7578C104.594 53.4922 104.203 53.1484 103.938 52.7266C103.672 52.3047 103.539 51.8594 103.539 51.3906H104.992C105.013 51.7865 105.128 52.1016 105.336 52.3359C105.544 52.5651 105.799 52.7292 106.102 52.8281C106.404 52.9219 106.703 52.9688 107 52.9688C107.396 52.9688 107.727 52.9167 107.992 52.8125C108.263 52.7083 108.469 52.5651 108.609 52.3828C108.75 52.2005 108.82 51.9922 108.82 51.7578ZM115.672 54.1562C115.083 54.1562 114.549 54.0573 114.07 53.8594C113.596 53.6562 113.188 53.3724 112.844 53.0078C112.505 52.6432 112.245 52.2109 112.062 51.7109C111.88 51.2109 111.789 50.6641 111.789 50.0703V49.7422C111.789 49.0547 111.891 48.4427 112.094 47.9062C112.297 47.3646 112.573 46.9062 112.922 46.5312C113.271 46.1562 113.667 45.8724 114.109 45.6797C114.552 45.487 115.01 45.3906 115.484 45.3906C116.089 45.3906 116.609 45.4948 117.047 45.7031C117.49 45.9115 117.852 46.2031 118.133 46.5781C118.414 46.9479 118.622 47.3854 118.758 47.8906C118.893 48.3906 118.961 48.9375 118.961 49.5312V50.1797H112.648V49H117.516V48.8906C117.495 48.5156 117.417 48.151 117.281 47.7969C117.151 47.4427 116.943 47.151 116.656 46.9219C116.37 46.6927 115.979 46.5781 115.484 46.5781C115.156 46.5781 114.854 46.6484 114.578 46.7891C114.302 46.9245 114.065 47.1276 113.867 47.3984C113.669 47.6693 113.516 48 113.406 48.3906C113.297 48.7812 113.242 49.2318 113.242 49.7422V50.0703C113.242 50.4714 113.297 50.849 113.406 51.2031C113.521 51.5521 113.685 51.8594 113.898 52.125C114.117 52.3906 114.38 52.599 114.688 52.75C115 52.901 115.354 52.9766 115.75 52.9766C116.26 52.9766 116.693 52.8724 117.047 52.6641C117.401 52.4557 117.711 52.1771 117.977 51.8281L118.852 52.5234C118.669 52.7995 118.438 53.0625 118.156 53.3125C117.875 53.5625 117.529 53.7656 117.117 53.9219C116.711 54.0781 116.229 54.1562 115.672 54.1562ZM122.094 47.3516V54H120.648V45.5469H122.016L122.094 47.3516ZM121.75 49.4531L121.148 49.4297C121.154 48.8516 121.24 48.3177 121.406 47.8281C121.573 47.3333 121.807 46.9036 122.109 46.5391C122.411 46.1745 122.771 45.8932 123.188 45.6953C123.609 45.4922 124.076 45.3906 124.586 45.3906C125.003 45.3906 125.378 45.4479 125.711 45.5625C126.044 45.6719 126.328 45.849 126.562 46.0938C126.802 46.3385 126.984 46.6562 127.109 47.0469C127.234 47.4323 127.297 47.9036 127.297 48.4609V54H125.844V48.4453C125.844 48.0026 125.779 47.6484 125.648 47.3828C125.518 47.112 125.328 46.9167 125.078 46.7969C124.828 46.6719 124.521 46.6094 124.156 46.6094C123.797 46.6094 123.469 46.6849 123.172 46.8359C122.88 46.987 122.628 47.1953 122.414 47.4609C122.206 47.7266 122.042 48.0312 121.922 48.375C121.807 48.7135 121.75 49.0729 121.75 49.4531ZM134.82 52.3594V42H136.273V54H134.945L134.82 52.3594ZM129.133 49.8672V49.7031C129.133 49.0573 129.211 48.4714 129.367 47.9453C129.529 47.4141 129.755 46.9583 130.047 46.5781C130.344 46.1979 130.695 45.9062 131.102 45.7031C131.513 45.4948 131.971 45.3906 132.477 45.3906C133.008 45.3906 133.471 45.4844 133.867 45.6719C134.268 45.8542 134.607 46.1224 134.883 46.4766C135.164 46.8255 135.385 47.2474 135.547 47.7422C135.708 48.237 135.82 48.7969 135.883 49.4219V50.1406C135.826 50.7604 135.714 51.3177 135.547 51.8125C135.385 52.3073 135.164 52.7292 134.883 53.0781C134.607 53.4271 134.268 53.6953 133.867 53.8828C133.466 54.0651 132.997 54.1562 132.461 54.1562C131.966 54.1562 131.513 54.0495 131.102 53.8359C130.695 53.6224 130.344 53.3229 130.047 52.9375C129.755 52.5521 129.529 52.099 129.367 51.5781C129.211 51.0521 129.133 50.4818 129.133 49.8672ZM130.586 49.7031V49.8672C130.586 50.2891 130.628 50.6849 130.711 51.0547C130.799 51.4245 130.935 51.75 131.117 52.0312C131.299 52.3125 131.531 52.5339 131.812 52.6953C132.094 52.8516 132.43 52.9297 132.82 52.9297C133.299 52.9297 133.693 52.8281 134 52.625C134.312 52.4219 134.562 52.1536 134.75 51.8203C134.938 51.487 135.083 51.125 135.188 50.7344V48.8516C135.125 48.5651 135.034 48.2891 134.914 48.0234C134.799 47.7526 134.648 47.513 134.461 47.3047C134.279 47.0911 134.052 46.9219 133.781 46.7969C133.516 46.6719 133.201 46.6094 132.836 46.6094C132.44 46.6094 132.099 46.6927 131.812 46.8594C131.531 47.0208 131.299 47.2448 131.117 47.5312C130.935 47.8125 130.799 48.1406 130.711 48.5156C130.628 48.8854 130.586 49.2812 130.586 49.7031ZM144.867 53.125L147.219 45.5469H148.766L145.375 55.3047C145.297 55.513 145.193 55.737 145.062 55.9766C144.938 56.2214 144.776 56.4531 144.578 56.6719C144.38 56.8906 144.141 57.0677 143.859 57.2031C143.583 57.3438 143.253 57.4141 142.867 57.4141C142.753 57.4141 142.607 57.3984 142.43 57.3672C142.253 57.3359 142.128 57.3099 142.055 57.2891L142.047 56.1172C142.089 56.1224 142.154 56.1276 142.242 56.1328C142.336 56.1432 142.401 56.1484 142.438 56.1484C142.766 56.1484 143.044 56.1042 143.273 56.0156C143.503 55.9323 143.695 55.7891 143.852 55.5859C144.013 55.388 144.151 55.1146 144.266 54.7656L144.867 53.125ZM143.141 45.5469L145.336 52.1094L145.711 53.6328L144.672 54.1641L141.562 45.5469H143.141ZM149.562 49.8672V49.6875C149.562 49.0781 149.651 48.513 149.828 47.9922C150.005 47.4661 150.26 47.0104 150.594 46.625C150.927 46.2344 151.331 45.9323 151.805 45.7188C152.279 45.5 152.81 45.3906 153.398 45.3906C153.992 45.3906 154.526 45.5 155 45.7188C155.479 45.9323 155.885 46.2344 156.219 46.625C156.557 47.0104 156.815 47.4661 156.992 47.9922C157.169 48.513 157.258 49.0781 157.258 49.6875V49.8672C157.258 50.4766 157.169 51.0417 156.992 51.5625C156.815 52.0833 156.557 52.5391 156.219 52.9297C155.885 53.3151 155.482 53.6172 155.008 53.8359C154.539 54.0495 154.008 54.1562 153.414 54.1562C152.82 54.1562 152.286 54.0495 151.812 53.8359C151.339 53.6172 150.932 53.3151 150.594 52.9297C150.26 52.5391 150.005 52.0833 149.828 51.5625C149.651 51.0417 149.562 50.4766 149.562 49.8672ZM151.008 49.6875V49.8672C151.008 50.2891 151.057 50.6875 151.156 51.0625C151.255 51.4323 151.404 51.7604 151.602 52.0469C151.805 52.3333 152.057 52.5599 152.359 52.7266C152.661 52.888 153.013 52.9688 153.414 52.9688C153.81 52.9688 154.156 52.888 154.453 52.7266C154.755 52.5599 155.005 52.3333 155.203 52.0469C155.401 51.7604 155.549 51.4323 155.648 51.0625C155.753 50.6875 155.805 50.2891 155.805 49.8672V49.6875C155.805 49.2708 155.753 48.8776 155.648 48.5078C155.549 48.1328 155.398 47.8021 155.195 47.5156C154.997 47.224 154.747 46.9948 154.445 46.8281C154.148 46.6615 153.799 46.5781 153.398 46.5781C153.003 46.5781 152.654 46.6615 152.352 46.8281C152.055 46.9948 151.805 47.224 151.602 47.5156C151.404 47.8021 151.255 48.1328 151.156 48.5078C151.057 48.8776 151.008 49.2708 151.008 49.6875ZM164.242 52.0469V45.5469H165.695V54H164.312L164.242 52.0469ZM164.516 50.2656L165.117 50.25C165.117 50.8125 165.057 51.3333 164.938 51.8125C164.823 52.2865 164.635 52.6979 164.375 53.0469C164.115 53.3958 163.773 53.6693 163.352 53.8672C162.93 54.0599 162.417 54.1562 161.812 54.1562C161.401 54.1562 161.023 54.0964 160.68 53.9766C160.341 53.8568 160.049 53.6719 159.805 53.4219C159.56 53.1719 159.37 52.8464 159.234 52.4453C159.104 52.0443 159.039 51.5625 159.039 51V45.5469H160.484V51.0156C160.484 51.3958 160.526 51.7109 160.609 51.9609C160.698 52.2057 160.815 52.401 160.961 52.5469C161.112 52.6875 161.279 52.7865 161.461 52.8438C161.648 52.901 161.841 52.9297 162.039 52.9297C162.654 52.9297 163.141 52.8125 163.5 52.5781C163.859 52.3385 164.117 52.0182 164.273 51.6172C164.435 51.2109 164.516 50.7604 164.516 50.2656ZM173.797 54H172.352V44.8125C172.352 44.1719 172.477 43.6302 172.727 43.1875C172.977 42.7448 173.333 42.4089 173.797 42.1797C174.26 41.9505 174.81 41.8359 175.445 41.8359C175.82 41.8359 176.188 41.8828 176.547 41.9766C176.906 42.0651 177.276 42.1771 177.656 42.3125L177.414 43.5312C177.174 43.4375 176.896 43.349 176.578 43.2656C176.266 43.1771 175.922 43.1328 175.547 43.1328C174.927 43.1328 174.479 43.2734 174.203 43.5547C173.932 43.8307 173.797 44.25 173.797 44.8125V54ZM175.523 45.5469V46.6562H171.016V45.5469H175.523ZM178.367 45.5469V54H176.922V45.5469H178.367ZM182.312 42V54H180.859V42H182.312ZM188.141 54.1562C187.552 54.1562 187.018 54.0573 186.539 53.8594C186.065 53.6562 185.656 53.3724 185.312 53.0078C184.974 52.6432 184.714 52.2109 184.531 51.7109C184.349 51.2109 184.258 50.6641 184.258 50.0703V49.7422C184.258 49.0547 184.359 48.4427 184.562 47.9062C184.766 47.3646 185.042 46.9062 185.391 46.5312C185.74 46.1562 186.135 45.8724 186.578 45.6797C187.021 45.487 187.479 45.3906 187.953 45.3906C188.557 45.3906 189.078 45.4948 189.516 45.7031C189.958 45.9115 190.32 46.2031 190.602 46.5781C190.883 46.9479 191.091 47.3854 191.227 47.8906C191.362 48.3906 191.43 48.9375 191.43 49.5312V50.1797H185.117V49H189.984V48.8906C189.964 48.5156 189.885 48.151 189.75 47.7969C189.62 47.4427 189.411 47.151 189.125 46.9219C188.839 46.6927 188.448 46.5781 187.953 46.5781C187.625 46.5781 187.323 46.6484 187.047 46.7891C186.771 46.9245 186.534 47.1276 186.336 47.3984C186.138 47.6693 185.984 48 185.875 48.3906C185.766 48.7812 185.711 49.2318 185.711 49.7422V50.0703C185.711 50.4714 185.766 50.849 185.875 51.2031C185.99 51.5521 186.154 51.8594 186.367 52.125C186.586 52.3906 186.849 52.599 187.156 52.75C187.469 52.901 187.823 52.9766 188.219 52.9766C188.729 52.9766 189.161 52.8724 189.516 52.6641C189.87 52.4557 190.18 52.1771 190.445 51.8281L191.32 52.5234C191.138 52.7995 190.906 53.0625 190.625 53.3125C190.344 53.5625 189.997 53.7656 189.586 53.9219C189.18 54.0781 188.698 54.1562 188.141 54.1562ZM198.039 51.7578C198.039 51.5495 197.992 51.3568 197.898 51.1797C197.81 50.9974 197.625 50.8333 197.344 50.6875C197.068 50.5365 196.651 50.4062 196.094 50.2969C195.625 50.1979 195.201 50.0807 194.82 49.9453C194.445 49.8099 194.125 49.6458 193.859 49.4531C193.599 49.2604 193.398 49.0339 193.258 48.7734C193.117 48.513 193.047 48.2083 193.047 47.8594C193.047 47.526 193.12 47.2109 193.266 46.9141C193.417 46.6172 193.628 46.3542 193.898 46.125C194.174 45.8958 194.505 45.7161 194.891 45.5859C195.276 45.4557 195.706 45.3906 196.18 45.3906C196.857 45.3906 197.435 45.5104 197.914 45.75C198.393 45.9896 198.76 46.3099 199.016 46.7109C199.271 47.1068 199.398 47.5469 199.398 48.0312H197.953C197.953 47.7969 197.883 47.5703 197.742 47.3516C197.607 47.1276 197.406 46.9427 197.141 46.7969C196.88 46.651 196.56 46.5781 196.18 46.5781C195.779 46.5781 195.453 46.6406 195.203 46.7656C194.958 46.8854 194.779 47.0391 194.664 47.2266C194.555 47.4141 194.5 47.612 194.5 47.8203C194.5 47.9766 194.526 48.1172 194.578 48.2422C194.635 48.362 194.734 48.474 194.875 48.5781C195.016 48.6771 195.214 48.7708 195.469 48.8594C195.724 48.9479 196.049 49.0365 196.445 49.125C197.138 49.2812 197.708 49.4688 198.156 49.6875C198.604 49.9062 198.938 50.1745 199.156 50.4922C199.375 50.8099 199.484 51.1953 199.484 51.6484C199.484 52.0182 199.406 52.3568 199.25 52.6641C199.099 52.9714 198.878 53.237 198.586 53.4609C198.299 53.6797 197.956 53.8516 197.555 53.9766C197.159 54.0964 196.714 54.1562 196.219 54.1562C195.474 54.1562 194.844 54.0234 194.328 53.7578C193.812 53.4922 193.422 53.1484 193.156 52.7266C192.891 52.3047 192.758 51.8594 192.758 51.3906H194.211C194.232 51.7865 194.346 52.1016 194.555 52.3359C194.763 52.5651 195.018 52.7292 195.32 52.8281C195.622 52.9219 195.922 52.9688 196.219 52.9688C196.615 52.9688 196.945 52.9167 197.211 52.8125C197.482 52.7083 197.688 52.5651 197.828 52.3828C197.969 52.2005 198.039 51.9922 198.039 51.7578ZM204.523 50.7969H203.07C203.076 50.2969 203.12 49.888 203.203 49.5703C203.292 49.2474 203.435 48.9531 203.633 48.6875C203.831 48.4219 204.094 48.1198 204.422 47.7812C204.661 47.5365 204.88 47.3073 205.078 47.0938C205.281 46.875 205.445 46.6406 205.57 46.3906C205.695 46.1354 205.758 45.8307 205.758 45.4766C205.758 45.1172 205.693 44.8073 205.562 44.5469C205.438 44.2865 205.25 44.0859 205 43.9453C204.755 43.8047 204.451 43.7344 204.086 43.7344C203.784 43.7344 203.497 43.7891 203.227 43.8984C202.956 44.0078 202.737 44.1771 202.57 44.4062C202.404 44.6302 202.318 44.9245 202.312 45.2891H200.867C200.878 44.7005 201.023 44.1953 201.305 43.7734C201.591 43.3516 201.977 43.0286 202.461 42.8047C202.945 42.5807 203.487 42.4688 204.086 42.4688C204.747 42.4688 205.31 42.5885 205.773 42.8281C206.242 43.0677 206.599 43.4115 206.844 43.8594C207.089 44.3021 207.211 44.8281 207.211 45.4375C207.211 45.9062 207.115 46.3385 206.922 46.7344C206.734 47.125 206.492 47.4922 206.195 47.8359C205.898 48.1797 205.583 48.5078 205.25 48.8203C204.964 49.0859 204.771 49.3854 204.672 49.7188C204.573 50.0521 204.523 50.4115 204.523 50.7969ZM203.008 53.2734C203.008 53.0391 203.081 52.8411 203.227 52.6797C203.372 52.5182 203.583 52.4375 203.859 52.4375C204.141 52.4375 204.354 52.5182 204.5 52.6797C204.646 52.8411 204.719 53.0391 204.719 53.2734C204.719 53.4974 204.646 53.6901 204.5 53.8516C204.354 54.013 204.141 54.0938 203.859 54.0938C203.583 54.0938 203.372 54.013 203.227 53.8516C203.081 53.6901 203.008 53.4974 203.008 53.2734Z" fill="white"/>
<defs>
<filter id="filter0_d_71080_391" x="0" y="0" width="272" height="130" filterUnits="userSpaceOnUse" color-interpolation-filters="sRGB">
<feFlood flood-opacity="0" result="BackgroundImageFix"/>
<feColorMatrix in="SourceAlpha" type="matrix" values="0 0 0 0 0 0 0 0 0 0 0 0 0 0 0 0 0 0 127 0" result="hardAlpha"/>
<feOffset dy="15"/>
<feGaussianBlur stdDeviation="20"/>
<feComposite in2="hardAlpha" operator="out"/>
<feColorMatrix type="matrix" values="0 0 0 0 0.145098 0 0 0 0 0.192157 0 0 0 0 0.235294 0 0 0 0.25 0"/>
<feBlend mode="normal" in2="BackgroundImageFix" result="effect1_dropShadow_71080_391"/>
<feBlend mode="normal" in="SourceGraphic" in2="effect1_dropShadow_71080_391" result="shape"/>
</filter>
<linearGradient id="paint0_linear_71080_391" x1="40" y1="25" x2="234.695" y2="60.0164" gradientUnits="userSpaceOnUse">
<stop stop-color="#1FCDCD"/>
<stop offset="1" stop-color="#3A46F7"/>
</linearGradient>
</defs>
</svg>
