<svg width="275" height="130" viewBox="0 0 275 130" fill="none" xmlns="http://www.w3.org/2000/svg">
<g filter="url(#filter0_d_71080_390)">
<path d="M235 35C235 29.4772 230.523 25 225 25H50C44.4772 25 40 29.4772 40 35V75H225C230.523 75 235 70.5228 235 65V35Z" fill="white"/>
</g>
<path d="M69.75 47.5156V48.7422H63.5938V47.5156H69.75ZM63.8281 42.625V54H62.3203V42.625H63.8281ZM71.0625 42.625V54H69.5625V42.625H71.0625ZM77.0312 54.1562C76.4427 54.1562 75.9089 54.0573 75.4297 53.8594C74.9557 53.6562 74.5469 53.3724 74.2031 53.0078C73.8646 52.6432 73.6042 52.2109 73.4219 51.7109C73.2396 51.2109 73.1484 50.6641 73.1484 50.0703V49.7422C73.1484 49.0547 73.25 48.4427 73.4531 47.9062C73.6562 47.3646 73.9323 46.9062 74.2812 46.5312C74.6302 46.1562 75.026 45.8724 75.4688 45.6797C75.9115 45.487 76.3698 45.3906 76.8438 45.3906C77.4479 45.3906 77.9688 45.4948 78.4062 45.7031C78.849 45.9115 79.2109 46.2031 79.4922 46.5781C79.7734 46.9479 79.9818 47.3854 80.1172 47.8906C80.2526 48.3906 80.3203 48.9375 80.3203 49.5312V50.1797H74.0078V49H78.875V48.8906C78.8542 48.5156 78.776 48.151 78.6406 47.7969C78.5104 47.4427 78.3021 47.151 78.0156 46.9219C77.7292 46.6927 77.3385 46.5781 76.8438 46.5781C76.5156 46.5781 76.2135 46.6484 75.9375 46.7891C75.6615 46.9245 75.4245 47.1276 75.2266 47.3984C75.0286 47.6693 74.875 48 74.7656 48.3906C74.6562 48.7812 74.6016 49.2318 74.6016 49.7422V50.0703C74.6016 50.4714 74.6562 50.849 74.7656 51.2031C74.8802 51.5521 75.0443 51.8594 75.2578 52.125C75.4766 52.3906 75.7396 52.599 76.0469 52.75C76.3594 52.901 76.7135 52.9766 77.1094 52.9766C77.6198 52.9766 78.0521 52.8724 78.4062 52.6641C78.7604 52.4557 79.0703 52.1771 79.3359 51.8281L80.2109 52.5234C80.0286 52.7995 79.7969 53.0625 79.5156 53.3125C79.2344 53.5625 78.888 53.7656 78.4766 53.9219C78.0703 54.0781 77.5885 54.1562 77.0312 54.1562ZM84.2734 53.125L86.625 45.5469H88.1719L84.7812 55.3047C84.7031 55.513 84.599 55.737 84.4688 55.9766C84.3438 56.2214 84.1823 56.4531 83.9844 56.6719C83.7865 56.8906 83.5469 57.0677 83.2656 57.2031C82.9896 57.3438 82.6589 57.4141 82.2734 57.4141C82.1589 57.4141 82.013 57.3984 81.8359 57.3672C81.6589 57.3359 81.5339 57.3099 81.4609 57.2891L81.4531 56.1172C81.4948 56.1224 81.5599 56.1276 81.6484 56.1328C81.7422 56.1432 81.8073 56.1484 81.8438 56.1484C82.1719 56.1484 82.4505 56.1042 82.6797 56.0156C82.9089 55.9323 83.1016 55.7891 83.2578 55.5859C83.4193 55.388 83.5573 55.1146 83.6719 54.7656L84.2734 53.125ZM82.5469 45.5469L84.7422 52.1094L85.1172 53.6328L84.0781 54.1641L80.9688 45.5469H82.5469ZM91.1953 42.625L91.0938 50.7891H89.7891L89.6797 42.625H91.1953ZM89.6328 53.2734C89.6328 53.0391 89.7031 52.8411 89.8438 52.6797C89.9896 52.5182 90.2031 52.4375 90.4844 52.4375C90.7604 52.4375 90.9714 52.5182 91.1172 52.6797C91.2682 52.8411 91.3438 53.0391 91.3438 53.2734C91.3438 53.4974 91.2682 53.6901 91.1172 53.8516C90.9714 54.013 90.7604 54.0938 90.4844 54.0938C90.2031 54.0938 89.9896 54.013 89.8438 53.8516C89.7031 53.6901 89.6328 53.4974 89.6328 53.2734ZM106.547 47.9531V48.6719C106.547 49.526 106.44 50.2917 106.227 50.9688C106.013 51.6458 105.706 52.2214 105.305 52.6953C104.904 53.1693 104.422 53.5312 103.859 53.7812C103.302 54.0312 102.677 54.1562 101.984 54.1562C101.312 54.1562 100.695 54.0312 100.133 53.7812C99.5755 53.5312 99.0911 53.1693 98.6797 52.6953C98.2734 52.2214 97.9583 51.6458 97.7344 50.9688C97.5104 50.2917 97.3984 49.526 97.3984 48.6719V47.9531C97.3984 47.099 97.5078 46.3359 97.7266 45.6641C97.9505 44.987 98.2656 44.4115 98.6719 43.9375C99.0781 43.4583 99.5599 43.0938 100.117 42.8438C100.68 42.5938 101.297 42.4688 101.969 42.4688C102.661 42.4688 103.286 42.5938 103.844 42.8438C104.406 43.0938 104.888 43.4583 105.289 43.9375C105.695 44.4115 106.005 44.987 106.219 45.6641C106.438 46.3359 106.547 47.099 106.547 47.9531ZM105.055 48.6719V47.9375C105.055 47.2604 104.984 46.6615 104.844 46.1406C104.708 45.6198 104.508 45.1823 104.242 44.8281C103.977 44.474 103.651 44.2057 103.266 44.0234C102.885 43.8411 102.453 43.75 101.969 43.75C101.5 43.75 101.076 43.8411 100.695 44.0234C100.32 44.2057 99.9974 44.474 99.7266 44.8281C99.4609 45.1823 99.2552 45.6198 99.1094 46.1406C98.9635 46.6615 98.8906 47.2604 98.8906 47.9375V48.6719C98.8906 49.3542 98.9635 49.9583 99.1094 50.4844C99.2552 51.0052 99.4635 51.4453 99.7344 51.8047C100.01 52.1589 100.336 52.4271 100.711 52.6094C101.091 52.7917 101.516 52.8828 101.984 52.8828C102.474 52.8828 102.909 52.7917 103.289 52.6094C103.669 52.4271 103.99 52.1589 104.25 51.8047C104.516 51.4453 104.716 51.0052 104.852 50.4844C104.987 49.9583 105.055 49.3542 105.055 48.6719ZM110.039 42V54H108.586V42H110.039ZM115.203 45.5469L111.516 49.4922L109.453 51.6328L109.336 50.0938L110.812 48.3281L113.438 45.5469H115.203ZM113.883 54L110.867 49.9688L111.617 48.6797L115.586 54H113.883ZM121.68 52.5547V48.2031C121.68 47.8698 121.612 47.5807 121.477 47.3359C121.346 47.0859 121.148 46.8932 120.883 46.7578C120.617 46.6224 120.289 46.5547 119.898 46.5547C119.534 46.5547 119.214 46.6172 118.938 46.7422C118.667 46.8672 118.453 47.0312 118.297 47.2344C118.146 47.4375 118.07 47.6562 118.07 47.8906H116.625C116.625 47.5885 116.703 47.2891 116.859 46.9922C117.016 46.6953 117.24 46.4271 117.531 46.1875C117.828 45.9427 118.182 45.75 118.594 45.6094C119.01 45.4635 119.474 45.3906 119.984 45.3906C120.599 45.3906 121.141 45.4948 121.609 45.7031C122.083 45.9115 122.453 46.2266 122.719 46.6484C122.99 47.0651 123.125 47.5885 123.125 48.2188V52.1562C123.125 52.4375 123.148 52.737 123.195 53.0547C123.247 53.3724 123.323 53.6458 123.422 53.875V54H121.914C121.841 53.8333 121.784 53.612 121.742 53.3359C121.701 53.0547 121.68 52.7943 121.68 52.5547ZM121.93 48.875L121.945 49.8906H120.484C120.073 49.8906 119.706 49.9245 119.383 49.9922C119.06 50.0547 118.789 50.151 118.57 50.2812C118.352 50.4115 118.185 50.5755 118.07 50.7734C117.956 50.9661 117.898 51.1927 117.898 51.4531C117.898 51.7188 117.958 51.9609 118.078 52.1797C118.198 52.3984 118.378 52.5729 118.617 52.7031C118.862 52.8281 119.161 52.8906 119.516 52.8906C119.958 52.8906 120.349 52.7969 120.688 52.6094C121.026 52.4219 121.294 52.1927 121.492 51.9219C121.695 51.651 121.805 51.388 121.82 51.1328L122.438 51.8281C122.401 52.0469 122.302 52.2891 122.141 52.5547C121.979 52.8203 121.763 53.0755 121.492 53.3203C121.227 53.5599 120.909 53.7604 120.539 53.9219C120.174 54.0781 119.763 54.1562 119.305 54.1562C118.732 54.1562 118.229 54.0443 117.797 53.8203C117.37 53.5964 117.036 53.2969 116.797 52.9219C116.562 52.5417 116.445 52.1172 116.445 51.6484C116.445 51.1953 116.534 50.7969 116.711 50.4531C116.888 50.1042 117.143 49.8151 117.477 49.5859C117.81 49.3516 118.211 49.1745 118.68 49.0547C119.148 48.9349 119.672 48.875 120.25 48.875H121.93ZM127.648 53.125L130 45.5469H131.547L128.156 55.3047C128.078 55.513 127.974 55.737 127.844 55.9766C127.719 56.2214 127.557 56.4531 127.359 56.6719C127.161 56.8906 126.922 57.0677 126.641 57.2031C126.365 57.3438 126.034 57.4141 125.648 57.4141C125.534 57.4141 125.388 57.3984 125.211 57.3672C125.034 57.3359 124.909 57.3099 124.836 57.2891L124.828 56.1172C124.87 56.1224 124.935 56.1276 125.023 56.1328C125.117 56.1432 125.182 56.1484 125.219 56.1484C125.547 56.1484 125.826 56.1042 126.055 56.0156C126.284 55.9323 126.477 55.7891 126.633 55.5859C126.794 55.388 126.932 55.1146 127.047 54.7656L127.648 53.125ZM125.922 45.5469L128.117 52.1094L128.492 53.6328L127.453 54.1641L124.344 45.5469H125.922ZM133.32 52.2812V53.4453C133.32 53.9193 133.201 54.4193 132.961 54.9453C132.721 55.4766 132.385 55.9193 131.953 56.2734L131.133 55.7031C131.299 55.474 131.44 55.2396 131.555 55C131.669 54.7656 131.755 54.5208 131.812 54.2656C131.875 54.0156 131.906 53.75 131.906 53.4688V52.2812H133.32ZM144.055 51.7578C144.055 51.5495 144.008 51.3568 143.914 51.1797C143.826 50.9974 143.641 50.8333 143.359 50.6875C143.083 50.5365 142.667 50.4062 142.109 50.2969C141.641 50.1979 141.216 50.0807 140.836 49.9453C140.461 49.8099 140.141 49.6458 139.875 49.4531C139.615 49.2604 139.414 49.0339 139.273 48.7734C139.133 48.513 139.062 48.2083 139.062 47.8594C139.062 47.526 139.135 47.2109 139.281 46.9141C139.432 46.6172 139.643 46.3542 139.914 46.125C140.19 45.8958 140.521 45.7161 140.906 45.5859C141.292 45.4557 141.721 45.3906 142.195 45.3906C142.872 45.3906 143.451 45.5104 143.93 45.75C144.409 45.9896 144.776 46.3099 145.031 46.7109C145.286 47.1068 145.414 47.5469 145.414 48.0312H143.969C143.969 47.7969 143.898 47.5703 143.758 47.3516C143.622 47.1276 143.422 46.9427 143.156 46.7969C142.896 46.651 142.576 46.5781 142.195 46.5781C141.794 46.5781 141.469 46.6406 141.219 46.7656C140.974 46.8854 140.794 47.0391 140.68 47.2266C140.57 47.4141 140.516 47.612 140.516 47.8203C140.516 47.9766 140.542 48.1172 140.594 48.2422C140.651 48.362 140.75 48.474 140.891 48.5781C141.031 48.6771 141.229 48.7708 141.484 48.8594C141.74 48.9479 142.065 49.0365 142.461 49.125C143.154 49.2812 143.724 49.4688 144.172 49.6875C144.62 49.9062 144.953 50.1745 145.172 50.4922C145.391 50.8099 145.5 51.1953 145.5 51.6484C145.5 52.0182 145.422 52.3568 145.266 52.6641C145.115 52.9714 144.893 53.237 144.602 53.4609C144.315 53.6797 143.971 53.8516 143.57 53.9766C143.174 54.0964 142.729 54.1562 142.234 54.1562C141.49 54.1562 140.859 54.0234 140.344 53.7578C139.828 53.4922 139.438 53.1484 139.172 52.7266C138.906 52.3047 138.773 51.8594 138.773 51.3906H140.227C140.247 51.7865 140.362 52.1016 140.57 52.3359C140.779 52.5651 141.034 52.7292 141.336 52.8281C141.638 52.9219 141.938 52.9688 142.234 52.9688C142.63 52.9688 142.961 52.9167 143.227 52.8125C143.497 52.7083 143.703 52.5651 143.844 52.3828C143.984 52.2005 144.055 51.9922 144.055 51.7578ZM150.906 54.1562C150.318 54.1562 149.784 54.0573 149.305 53.8594C148.831 53.6562 148.422 53.3724 148.078 53.0078C147.74 52.6432 147.479 52.2109 147.297 51.7109C147.115 51.2109 147.023 50.6641 147.023 50.0703V49.7422C147.023 49.0547 147.125 48.4427 147.328 47.9062C147.531 47.3646 147.807 46.9062 148.156 46.5312C148.505 46.1562 148.901 45.8724 149.344 45.6797C149.786 45.487 150.245 45.3906 150.719 45.3906C151.323 45.3906 151.844 45.4948 152.281 45.7031C152.724 45.9115 153.086 46.2031 153.367 46.5781C153.648 46.9479 153.857 47.3854 153.992 47.8906C154.128 48.3906 154.195 48.9375 154.195 49.5312V50.1797H147.883V49H152.75V48.8906C152.729 48.5156 152.651 48.151 152.516 47.7969C152.385 47.4427 152.177 47.151 151.891 46.9219C151.604 46.6927 151.214 46.5781 150.719 46.5781C150.391 46.5781 150.089 46.6484 149.812 46.7891C149.536 46.9245 149.299 47.1276 149.102 47.3984C148.904 47.6693 148.75 48 148.641 48.3906C148.531 48.7812 148.477 49.2318 148.477 49.7422V50.0703C148.477 50.4714 148.531 50.849 148.641 51.2031C148.755 51.5521 148.919 51.8594 149.133 52.125C149.352 52.3906 149.615 52.599 149.922 52.75C150.234 52.901 150.589 52.9766 150.984 52.9766C151.495 52.9766 151.927 52.8724 152.281 52.6641C152.635 52.4557 152.945 52.1771 153.211 51.8281L154.086 52.5234C153.904 52.7995 153.672 53.0625 153.391 53.3125C153.109 53.5625 152.763 53.7656 152.352 53.9219C151.945 54.0781 151.464 54.1562 150.906 54.1562ZM157.328 47.3516V54H155.883V45.5469H157.25L157.328 47.3516ZM156.984 49.4531L156.383 49.4297C156.388 48.8516 156.474 48.3177 156.641 47.8281C156.807 47.3333 157.042 46.9036 157.344 46.5391C157.646 46.1745 158.005 45.8932 158.422 45.6953C158.844 45.4922 159.31 45.3906 159.82 45.3906C160.237 45.3906 160.612 45.4479 160.945 45.5625C161.279 45.6719 161.562 45.849 161.797 46.0938C162.036 46.3385 162.219 46.6562 162.344 47.0469C162.469 47.4323 162.531 47.9036 162.531 48.4609V54H161.078V48.4453C161.078 48.0026 161.013 47.6484 160.883 47.3828C160.753 47.112 160.562 46.9167 160.312 46.7969C160.062 46.6719 159.755 46.6094 159.391 46.6094C159.031 46.6094 158.703 46.6849 158.406 46.8359C158.115 46.987 157.862 47.1953 157.648 47.4609C157.44 47.7266 157.276 48.0312 157.156 48.375C157.042 48.7135 156.984 49.0729 156.984 49.4531ZM170.055 52.3594V42H171.508V54H170.18L170.055 52.3594ZM164.367 49.8672V49.7031C164.367 49.0573 164.445 48.4714 164.602 47.9453C164.763 47.4141 164.99 46.9583 165.281 46.5781C165.578 46.1979 165.93 45.9062 166.336 45.7031C166.747 45.4948 167.206 45.3906 167.711 45.3906C168.242 45.3906 168.706 45.4844 169.102 45.6719C169.503 45.8542 169.841 46.1224 170.117 46.4766C170.398 46.8255 170.62 47.2474 170.781 47.7422C170.943 48.237 171.055 48.7969 171.117 49.4219V50.1406C171.06 50.7604 170.948 51.3177 170.781 51.8125C170.62 52.3073 170.398 52.7292 170.117 53.0781C169.841 53.4271 169.503 53.6953 169.102 53.8828C168.701 54.0651 168.232 54.1562 167.695 54.1562C167.201 54.1562 166.747 54.0495 166.336 53.8359C165.93 53.6224 165.578 53.3229 165.281 52.9375C164.99 52.5521 164.763 52.099 164.602 51.5781C164.445 51.0521 164.367 50.4818 164.367 49.8672ZM165.82 49.7031V49.8672C165.82 50.2891 165.862 50.6849 165.945 51.0547C166.034 51.4245 166.169 51.75 166.352 52.0312C166.534 52.3125 166.766 52.5339 167.047 52.6953C167.328 52.8516 167.664 52.9297 168.055 52.9297C168.534 52.9297 168.927 52.8281 169.234 52.625C169.547 52.4219 169.797 52.1536 169.984 51.8203C170.172 51.487 170.318 51.125 170.422 50.7344V48.8516C170.359 48.5651 170.268 48.2891 170.148 48.0234C170.034 47.7526 169.883 47.513 169.695 47.3047C169.513 47.0911 169.286 46.9219 169.016 46.7969C168.75 46.6719 168.435 46.6094 168.07 46.6094C167.674 46.6094 167.333 46.6927 167.047 46.8594C166.766 47.0208 166.534 47.2448 166.352 47.5312C166.169 47.8125 166.034 48.1406 165.945 48.5156C165.862 48.8854 165.82 49.2812 165.82 49.7031ZM177.344 49.8672V49.6875C177.344 49.0781 177.432 48.513 177.609 47.9922C177.786 47.4661 178.042 47.0104 178.375 46.625C178.708 46.2344 179.112 45.9323 179.586 45.7188C180.06 45.5 180.591 45.3906 181.18 45.3906C181.773 45.3906 182.307 45.5 182.781 45.7188C183.26 45.9323 183.667 46.2344 184 46.625C184.339 47.0104 184.596 47.4661 184.773 47.9922C184.951 48.513 185.039 49.0781 185.039 49.6875V49.8672C185.039 50.4766 184.951 51.0417 184.773 51.5625C184.596 52.0833 184.339 52.5391 184 52.9297C183.667 53.3151 183.263 53.6172 182.789 53.8359C182.32 54.0495 181.789 54.1562 181.195 54.1562C180.602 54.1562 180.068 54.0495 179.594 53.8359C179.12 53.6172 178.714 53.3151 178.375 52.9297C178.042 52.5391 177.786 52.0833 177.609 51.5625C177.432 51.0417 177.344 50.4766 177.344 49.8672ZM178.789 49.6875V49.8672C178.789 50.2891 178.839 50.6875 178.938 51.0625C179.036 51.4323 179.185 51.7604 179.383 52.0469C179.586 52.3333 179.839 52.5599 180.141 52.7266C180.443 52.888 180.794 52.9688 181.195 52.9688C181.591 52.9688 181.938 52.888 182.234 52.7266C182.536 52.5599 182.786 52.3333 182.984 52.0469C183.182 51.7604 183.331 51.4323 183.43 51.0625C183.534 50.6875 183.586 50.2891 183.586 49.8672V49.6875C183.586 49.2708 183.534 48.8776 183.43 48.5078C183.331 48.1328 183.18 47.8021 182.977 47.5156C182.779 47.224 182.529 46.9948 182.227 46.8281C181.93 46.6615 181.581 46.5781 181.18 46.5781C180.784 46.5781 180.435 46.6615 180.133 46.8281C179.836 46.9948 179.586 47.224 179.383 47.5156C179.185 47.8021 179.036 48.1328 178.938 48.5078C178.839 48.8776 178.789 49.2708 178.789 49.6875ZM192.023 52.0469V45.5469H193.477V54H192.094L192.023 52.0469ZM192.297 50.2656L192.898 50.25C192.898 50.8125 192.839 51.3333 192.719 51.8125C192.604 52.2865 192.417 52.6979 192.156 53.0469C191.896 53.3958 191.555 53.6693 191.133 53.8672C190.711 54.0599 190.198 54.1562 189.594 54.1562C189.182 54.1562 188.805 54.0964 188.461 53.9766C188.122 53.8568 187.831 53.6719 187.586 53.4219C187.341 53.1719 187.151 52.8464 187.016 52.4453C186.885 52.0443 186.82 51.5625 186.82 51V45.5469H188.266V51.0156C188.266 51.3958 188.307 51.7109 188.391 51.9609C188.479 52.2057 188.596 52.401 188.742 52.5469C188.893 52.6875 189.06 52.7865 189.242 52.8438C189.43 52.901 189.622 52.9297 189.82 52.9297C190.435 52.9297 190.922 52.8125 191.281 52.5781C191.641 52.3385 191.898 52.0182 192.055 51.6172C192.216 51.2109 192.297 50.7604 192.297 50.2656ZM199.219 45.5469V46.6562H194.648V45.5469H199.219ZM196.195 43.4922H197.641V51.9062C197.641 52.1927 197.685 52.4089 197.773 52.5547C197.862 52.7005 197.977 52.7969 198.117 52.8438C198.258 52.8906 198.409 52.9141 198.57 52.9141C198.69 52.9141 198.815 52.9036 198.945 52.8828C199.081 52.8568 199.182 52.8359 199.25 52.8203L199.258 54C199.143 54.0365 198.992 54.0703 198.805 54.1016C198.622 54.138 198.401 54.1562 198.141 54.1562C197.786 54.1562 197.461 54.0859 197.164 53.9453C196.867 53.8047 196.63 53.5703 196.453 53.2422C196.281 52.9089 196.195 52.4609 196.195 51.8984V43.4922ZM200.938 53.2344C200.938 52.9896 201.013 52.7839 201.164 52.6172C201.32 52.4453 201.544 52.3594 201.836 52.3594C202.128 52.3594 202.349 52.4453 202.5 52.6172C202.656 52.7839 202.734 52.9896 202.734 53.2344C202.734 53.474 202.656 53.6771 202.5 53.8438C202.349 54.0104 202.128 54.0938 201.836 54.0938C201.544 54.0938 201.32 54.0104 201.164 53.8438C201.013 53.6771 200.938 53.474 200.938 53.2344Z" fill="#515C6F"/>
<defs>
<filter id="filter0_d_71080_390" x="0" y="0" width="275" height="130" filterUnits="userSpaceOnUse" color-interpolation-filters="sRGB">
<feFlood flood-opacity="0" result="BackgroundImageFix"/>
<feColorMatrix in="SourceAlpha" type="matrix" values="0 0 0 0 0 0 0 0 0 0 0 0 0 0 0 0 0 0 127 0" result="hardAlpha"/>
<feOffset dy="15"/>
<feGaussianBlur stdDeviation="20"/>
<feComposite in2="hardAlpha" operator="out"/>
<feColorMatrix type="matrix" values="0 0 0 0 0.145098 0 0 0 0 0.192157 0 0 0 0 0.235294 0 0 0 0.25 0"/>
<feBlend mode="normal" in2="BackgroundImageFix" result="effect1_dropShadow_71080_390"/>
<feBlend mode="normal" in="SourceGraphic" in2="effect1_dropShadow_71080_390" result="shape"/>
</filter>
</defs>
</svg>
