<svg width="75" height="22" viewBox="0 0 75 22" fill="none" xmlns="http://www.w3.org/2000/svg">
<path d="M7.4085 21.33C6.3745 21.33 5.5385 21.1265 4.9005 20.7195C4.2625 20.3125 3.795 19.7955 3.498 19.1685C3.201 18.5305 3.0525 17.865 3.0525 17.172V7.602H0.5445L0.8745 4.6155H3.0525V0.853499L6.732 0.473999V4.6155H10.593V7.602H6.732V15.4395C6.732 16.3525 6.787 17.0125 6.897 17.4195C7.007 17.8155 7.26 18.0685 7.656 18.1785C8.052 18.2775 8.69 18.327 9.57 18.327H10.56L10.2465 21.33H7.4085ZM20.0911 21.33C18.1331 21.33 16.4941 20.934 15.1741 20.142C13.8651 19.35 12.8751 18.305 12.2041 17.007C11.5441 15.698 11.2141 14.2625 11.2141 12.7005C11.2141 11.1935 11.5221 9.8075 12.1381 8.5425C12.7651 7.2665 13.6726 6.249 14.8606 5.49C16.0596 4.72 17.5116 4.335 19.2166 4.335C20.7126 4.335 21.9886 4.6375 23.0446 5.2425C24.1006 5.8475 24.9036 6.6835 25.4536 7.7505C26.0146 8.8065 26.2951 10.0165 26.2951 11.3805C26.2951 11.6885 26.2731 12.013 26.2291 12.354C26.1961 12.684 26.1466 13.025 26.0806 13.377H15.0256C15.1796 14.576 15.5151 15.5275 16.0321 16.2315C16.5491 16.9355 17.1926 17.447 17.9626 17.766C18.7326 18.074 19.5631 18.228 20.4541 18.228C21.3341 18.228 22.1811 18.1235 22.9951 17.9145C23.8201 17.6945 24.5846 17.3975 25.2886 17.0235L25.5691 20.076C24.9421 20.384 24.1666 20.67 23.2426 20.934C22.3186 21.198 21.2681 21.33 20.0911 21.33ZM15.1906 10.869H22.5331C22.5331 10.275 22.4176 9.7195 22.1866 9.2025C21.9666 8.6745 21.6091 8.251 21.1141 7.932C20.6301 7.602 19.9921 7.437 19.2001 7.437C18.0451 7.437 17.1431 7.7505 16.4941 8.3775C15.8561 9.0045 15.4216 9.835 15.1906 10.869ZM31.8117 21.33C30.8877 21.33 30.0572 21.132 29.3202 20.736C28.5832 20.34 28.0002 19.779 27.5712 19.053C27.1532 18.327 26.9442 17.469 26.9442 16.479C26.9442 15.555 27.1532 14.763 27.5712 14.103C28.0002 13.432 28.5612 12.8765 29.2542 12.4365C29.9582 11.9965 30.7227 11.65 31.5477 11.397C32.3837 11.133 33.2197 10.9405 34.0557 10.8195C34.9027 10.6985 35.6727 10.6325 36.3657 10.6215C36.3327 9.4555 36.0632 8.6525 35.5572 8.2125C35.0622 7.7615 34.2757 7.536 33.1977 7.536C32.5047 7.536 31.8117 7.635 31.1187 7.833C30.4257 8.031 29.6392 8.3775 28.7592 8.8725L28.3797 5.8695C29.2487 5.3855 30.1727 5.0115 31.1517 4.7475C32.1417 4.4725 33.1537 4.335 34.1877 4.335C35.4747 4.335 36.5527 4.5605 37.4217 5.0115C38.2907 5.4625 38.9452 6.205 39.3852 7.239C39.8362 8.273 40.0617 9.6535 40.0617 11.3805V15.4065C40.0617 16.2095 40.1002 16.82 40.1772 17.238C40.2542 17.656 40.4027 17.942 40.6227 18.096C40.8537 18.25 41.2002 18.327 41.6622 18.327H42.1077L41.7117 21.33H40.6887C39.9407 21.33 39.3192 21.242 38.8242 21.066C38.3292 20.901 37.9222 20.6645 37.6032 20.3565C37.2952 20.0485 37.0312 19.68 36.8112 19.251C36.2502 19.889 35.5242 20.395 34.6332 20.769C33.7532 21.143 32.8127 21.33 31.8117 21.33ZM33.0987 18.4755C33.6157 18.4755 34.1822 18.3435 34.7982 18.0795C35.4142 17.8045 35.9422 17.4195 36.3822 16.9245V13.1295C35.3262 13.1625 34.3747 13.3 33.5277 13.542C32.6807 13.773 32.0097 14.1195 31.5147 14.5815C31.0307 15.0325 30.7887 15.61 30.7887 16.314C30.7887 17.051 30.9812 17.5955 31.3662 17.9475C31.7622 18.2995 32.3397 18.4755 33.0987 18.4755ZM43.3852 21V4.6155H46.4542L46.8337 7.2885L46.0582 6.6285C46.8172 5.9135 47.6477 5.3525 48.5497 4.9455C49.4627 4.5385 50.4802 4.335 51.6022 4.335C52.4492 4.335 53.2192 4.467 53.9122 4.731C54.6162 4.984 55.2267 5.38 55.7437 5.919C56.2717 6.458 56.6952 7.1455 57.0142 7.9815L56.0737 7.701C56.5907 6.645 57.3552 5.82 58.3672 5.226C59.3792 4.632 60.6002 4.335 62.0302 4.335C63.4932 4.335 64.6977 4.6265 65.6437 5.2095C66.5897 5.7815 67.2882 6.6175 67.7392 7.7175C68.2012 8.8175 68.4322 10.143 68.4322 11.694V21H64.7362V11.892C64.7362 10.363 64.4777 9.241 63.9607 8.526C63.4437 7.8 62.5857 7.437 61.3867 7.437C60.6937 7.437 60.1107 7.5525 59.6377 7.7835C59.1647 8.0035 58.7907 8.317 58.5157 8.724C58.2407 9.131 58.0427 9.593 57.9217 10.11C57.8117 10.627 57.7567 11.177 57.7567 11.76V21H54.0607V12.1065C54.0607 10.9735 53.9342 10.066 53.6812 9.384C53.4282 8.702 53.0487 8.207 52.5427 7.899C52.0367 7.591 51.4097 7.437 50.6617 7.437C49.6607 7.437 48.8082 7.668 48.1042 8.13C47.4112 8.581 46.8612 9.2355 46.4542 10.0935L47.0647 8.1135V21H43.3852Z" fill="#25313C"/>
<path d="M70.794 21V16.875H74.82V21H70.794Z" fill="#FFB33A"/>
</svg>
