<svg width="25" height="25" viewBox="0 0 25 25" fill="none" xmlns="http://www.w3.org/2000/svg">
<path d="M5.4257 13.5416H17.0611L11.9778 18.6249C11.5715 19.0312 11.5715 19.6978 11.9778 20.1041C12.384 20.5103 13.0403 20.5103 13.4465 20.1041L20.3111 13.2395C20.7174 12.8332 20.7174 12.177 20.3111 11.7707L13.4569 4.89574C13.2623 4.70068 12.9981 4.59106 12.7226 4.59106C12.447 4.59106 12.1828 4.70068 11.9882 4.89574C11.5819 5.30199 11.5819 5.95824 11.9882 6.36449L17.0611 11.4582H5.4257C4.85278 11.4582 4.38403 11.927 4.38403 12.4999C4.38403 13.0728 4.85278 13.5416 5.4257 13.5416Z" fill="white" fill-opacity="0.5"/>
</svg>
