<svg width="25" height="25" viewBox="0 0 25 25" fill="none" xmlns="http://www.w3.org/2000/svg">
<path d="M2.73438 7.8125H22.2656C22.9125 7.8125 23.4375 7.2875 23.4375 6.64062C23.4375 5.99375 22.9125 5.46875 22.2656 5.46875H2.73438C2.0875 5.46875 1.5625 5.99375 1.5625 6.64062C1.5625 7.2875 2.0875 7.8125 2.73438 7.8125ZM22.2656 11.7188H2.73438C2.0875 11.7188 1.5625 12.2438 1.5625 12.8906C1.5625 13.5375 2.0875 14.0625 2.73438 14.0625H22.2656C22.9125 14.0625 23.4375 13.5375 23.4375 12.8906C23.4375 12.2438 22.9125 11.7188 22.2656 11.7188ZM22.2656 17.9688H2.73438C2.0875 17.9688 1.5625 18.4937 1.5625 19.1406C1.5625 19.7875 2.0875 20.3125 2.73438 20.3125H22.2656C22.9125 20.3125 23.4375 19.7875 23.4375 19.1406C23.4375 18.4937 22.9125 17.9688 22.2656 17.9688Z" fill="white"/>
</svg>
